<svg width="44" height="44" viewBox="0 0 44 44" fill="none" xmlns="http://www.w3.org/2000/svg">
<path opacity="0.4" d="M22 38C30.8366 38 38 30.8365 38 22C38 13.1634 30.8366 5.99997 22 5.99997C13.1634 5.99997 6 13.1634 6 22C6 30.8365 13.1634 38 22 38Z" fill="black"/>
<path d="M23.81 29C23.5075 29 23.205 28.8854 22.9662 28.64L17.3463 22.865C16.8846 22.3906 16.8846 21.6053 17.3463 21.1308L22.9662 15.3558C23.4279 14.8814 24.192 14.8814 24.6537 15.3558C25.1154 15.8302 25.1154 16.6155 24.6537 17.0899L19.8776 21.9979L24.6537 26.9059C25.1154 27.3803 25.1154 28.1656 24.6537 28.64C24.4308 28.8854 24.1284 29 23.81 29Z" fill="black"/>
</svg>
