<svg width="44" height="44" viewBox="0 0 44 44" fill="none" xmlns="http://www.w3.org/2000/svg">
<path opacity="0.4" d="M22 38C30.8366 38 38 30.8366 38 22C38 13.1634 30.8366 6 22 6C13.1634 6 6 13.1634 6 22C6 30.8366 13.1634 38 22 38Z" fill="#FF692C"/>
<path d="M19.7269 28C19.4067 28 19.1026 27.8661 18.8784 27.6317L14.3482 22.8936C13.8839 22.4081 13.8839 21.6045 14.3482 21.1189C14.8124 20.6334 15.5808 20.6334 16.045 21.1189L19.7269 24.9697L27.955 16.3641C28.4192 15.8786 29.1876 15.8786 29.6518 16.3641C30.1161 16.8497 30.1161 17.6533 29.6518 18.1388L20.5753 27.6317C20.3512 27.8661 20.047 28 19.7269 28Z" fill="#FF692C"/>
</svg>
