<svg width="44" height="44" viewBox="0 0 44 44" fill="none" xmlns="http://www.w3.org/2000/svg">
<path opacity="0.4" d="M22 38C30.8366 38 38 30.8366 38 22C38 13.1634 30.8366 6 22 6C13.1634 6 6 13.1634 6 22C6 30.8366 13.1634 38 22 38Z" fill="black"/>
<path d="M23.7778 21.9979L27.6352 18.1418C28.1216 17.6556 28.1216 16.8509 27.6352 16.3647C27.1488 15.8784 26.3438 15.8784 25.8574 16.3647L22 20.2207L18.1426 16.3647C17.6562 15.8784 16.8512 15.8784 16.3648 16.3647C15.8784 16.8509 15.8784 17.6556 16.3648 18.1418L20.2222 21.9979L16.3648 25.854C15.8784 26.3402 15.8784 27.145 16.3648 27.6312C16.6164 27.8826 16.935 28 17.2537 28C17.5723 28 17.891 27.8826 18.1426 27.6312L22 23.7751L25.8574 27.6312C26.109 27.8826 26.4277 28 26.7463 28C27.065 28 27.3836 27.8826 27.6352 27.6312C28.1216 27.145 28.1216 26.3402 27.6352 25.854L23.7778 21.9979Z" fill="black"/>
</svg>
