<svg width="44" height="44" viewBox="0 0 44 44" fill="none" xmlns="http://www.w3.org/2000/svg">
<path d="M29.9166 8.78506V6.22892C29.9166 5.55711 29.35 5 28.6666 5C27.9833 5 27.4166 5.55711 27.4166 6.22892V8.68675H16.5833V6.22892C16.5833 5.55711 16.0166 5 15.3333 5C14.65 5 14.0833 5.55711 14.0833 6.22892V8.78506C9.58331 9.1947 7.39998 11.8328 7.06664 15.7489C7.03331 16.2241 7.43331 16.6173 7.89998 16.6173H36.1C36.5833 16.6173 36.9833 16.2077 36.9333 15.7489C36.6 11.8328 34.4166 9.1947 29.9166 8.78506Z" fill="black"/>
<path opacity="0.4" d="M35.3333 19.0752C36.25 19.0752 37 19.8126 37 20.7138V30.8073C37 35.723 34.5 39.0001 28.6667 39.0001H15.3333C9.5 39.0001 7 35.723 7 30.8073V20.7138C7 19.8126 7.75 19.0752 8.66667 19.0752H35.3333Z" fill="black"/>
<path d="M16.1667 27.5301C15.7333 27.5301 15.3 27.3499 14.9833 27.0549C14.6833 26.7436 14.5 26.3176 14.5 25.8916C14.5 25.4655 14.6833 25.0395 14.9833 24.7282C15.45 24.2694 16.1833 24.1219 16.8 24.3841C17.0167 24.466 17.2 24.5807 17.35 24.7282C17.65 25.0395 17.8333 25.4655 17.8333 25.8916C17.8333 26.3176 17.65 26.7436 17.35 27.0549C17.0333 27.3499 16.6 27.5301 16.1667 27.5301Z" fill="black"/>
<path d="M21.9999 27.5301C21.5666 27.5301 21.1333 27.3499 20.8166 27.0549C20.5166 26.7436 20.3333 26.3176 20.3333 25.8916C20.3333 25.4655 20.5166 25.0395 20.8166 24.7282C20.9666 24.5807 21.1499 24.466 21.3666 24.3841C21.9833 24.1219 22.7166 24.2694 23.1833 24.7282C23.4833 25.0395 23.6666 25.4655 23.6666 25.8916C23.6666 26.3176 23.4833 26.7436 23.1833 27.0549C23.0999 27.1205 23.0166 27.186 22.9333 27.2515C22.8333 27.3171 22.7333 27.3663 22.6333 27.3991C22.5333 27.4482 22.4333 27.481 22.3333 27.4974C22.2166 27.5138 22.1166 27.5301 21.9999 27.5301Z" fill="black"/>
<path d="M27.8334 27.5301C27.4001 27.5301 26.9667 27.3499 26.6501 27.0549C26.3501 26.7436 26.1667 26.3176 26.1667 25.8916C26.1667 25.4655 26.3501 25.0395 26.6501 24.7282C26.8167 24.5807 26.9834 24.466 27.2001 24.3841C27.5001 24.253 27.8334 24.2202 28.1667 24.2858C28.2667 24.3021 28.3667 24.3349 28.4667 24.3841C28.5667 24.4168 28.6668 24.466 28.7668 24.5316C28.8501 24.5971 28.9334 24.6627 29.0167 24.7282C29.3167 25.0395 29.5001 25.4655 29.5001 25.8916C29.5001 26.3176 29.3167 26.7436 29.0167 27.0549C28.9334 27.1205 28.8501 27.186 28.7668 27.2515C28.6668 27.3171 28.5667 27.3663 28.4667 27.3991C28.3667 27.4482 28.2667 27.481 28.1667 27.4974C28.0501 27.5138 27.9334 27.5301 27.8334 27.5301Z" fill="black"/>
<path d="M16.1667 33.2651C15.95 33.2651 15.7333 33.216 15.5333 33.134C15.3167 33.0521 15.15 32.9374 14.9833 32.7899C14.6833 32.4786 14.5 32.0526 14.5 31.6266C14.5 31.2005 14.6833 30.7745 14.9833 30.4632C15.15 30.3157 15.3167 30.201 15.5333 30.1191C15.8333 29.988 16.1667 29.9552 16.5 30.0207C16.6 30.0371 16.7 30.0699 16.8 30.1191C16.9 30.1518 17 30.201 17.1 30.2666C17.1833 30.3321 17.2667 30.3976 17.35 30.4632C17.65 30.7745 17.8333 31.2005 17.8333 31.6266C17.8333 32.0526 17.65 32.4786 17.35 32.7899C17.2667 32.8555 17.1833 32.9374 17.1 32.9865C17 33.0521 16.9 33.1013 16.8 33.134C16.7 33.1832 16.6 33.216 16.5 33.2324C16.3833 33.2487 16.2833 33.2651 16.1667 33.2651Z" fill="black"/>
<path d="M21.9999 33.2651C21.5666 33.2651 21.1333 33.0848 20.8166 32.7899C20.5166 32.4786 20.3333 32.0526 20.3333 31.6265C20.3333 31.2005 20.5166 30.7745 20.8166 30.4632C21.4333 29.8569 22.5666 29.8569 23.1833 30.4632C23.4833 30.7745 23.6666 31.2005 23.6666 31.6265C23.6666 32.0526 23.4833 32.4786 23.1833 32.7899C22.8666 33.0848 22.4333 33.2651 21.9999 33.2651Z" fill="black"/>
<path d="M27.8334 33.2651C27.4001 33.2651 26.9667 33.0848 26.6501 32.7899C26.3501 32.4786 26.1667 32.0526 26.1667 31.6265C26.1667 31.2005 26.3501 30.7745 26.6501 30.4632C27.2667 29.8569 28.4001 29.8569 29.0167 30.4632C29.3167 30.7745 29.5001 31.2005 29.5001 31.6265C29.5001 32.0526 29.3167 32.4786 29.0167 32.7899C28.7001 33.0848 28.2667 33.2651 27.8334 33.2651Z" fill="black"/>
</svg>
