<svg width="24" height="24" viewBox="0 0 24 24" fill="none" xmlns="http://www.w3.org/2000/svg">
<path d="M17.0526 11.0526H12.9474V6.94737C12.9474 6.42947 12.5179 6 12 6C11.4821 6 11.0526 6.42947 11.0526 6.94737V11.0526H6.94737C6.42947 11.0526 6 11.4821 6 12C6 12.5179 6.42947 12.9474 6.94737 12.9474H11.0526V17.0526C11.0526 17.5705 11.4821 18 12 18C12.5179 18 12.9474 17.5705 12.9474 17.0526V12.9474H17.0526C17.5705 12.9474 18 12.5179 18 12C18 11.4821 17.5705 11.0526 17.0526 11.0526Z" fill="black"/>
</svg>
