<svg width="44" height="44" viewBox="0 0 44 44" fill="none" xmlns="http://www.w3.org/2000/svg">
<path opacity="0.4" d="M35 18V33.0125C35 36.3375 34.1333 38 29.8 38H14.2C9.86667 38 9 36.3375 9 33.0125V18C9.27733 18.0333 9.572 18.0499 9.86667 18.0499H34.1333C34.428 18.0499 34.7227 18.0333 35 18Z" fill="black"/>
<path d="M38 10.8V14C38 16.928 36.672 18.512 34 18.752C33.744 18.784 33.472 18.8 33.2 18.8H10.8C10.528 18.8 10.256 18.784 9.99999 18.752C7.328 18.512 6 16.928 6 14V10.8C6 7.6 7.6 6 10.8 6H33.2C36.4 6 38 7.6 38 10.8Z" fill="black"/>
<path d="M24.9119 26.4H19.0879C18.4319 26.4 17.8879 25.856 17.8879 25.2C17.8879 24.544 18.4319 24 19.0879 24H24.9119C25.5679 24 26.1119 24.544 26.1119 25.2C26.1119 25.856 25.5679 26.4 24.9119 26.4Z" fill="black"/>
</svg>
